# xmcd CD database file
#
# Track frame offsets:
#	183
#	15388
#	32960
#	48440
#	65880
#	89910
#	108640
#	121153
#	132220
#	144423
#	158370
#	170915
#	186085
#	201008
#
# Disc length: 2827 seconds
#
# Revision: 0
# Processed by: cddbd v1.4PL0 Copyright (c) Steve Scherf et al.
# Submitted via: CDex 1.50beta9
#
DISCID=c80b090e
DTITLE=022 Various Artists - Classic Colleens
DYEAR=1989
DGENRE=Country
TTITLE0=Buchch Of Violets Blue - Ann Breen
TTITLE1=Dublin In My Tears - Susan McCann
TTITLE2=In The Gloaming - Gloria Hunniford
TTITLE3=Softly Softly - Dana
TTITLE4=Die For Love :Dolores Keane
TTITLE5=Live Not Where I Love - De Danann
TTITLE6=The Way Old Friends Do - Philomena Begley
TTITLE7=Morning Has Broken - Mary O'Hara
TTITLE8=The Boys From County Armagh - Bridie GallAgher
TTITLE9=Love Someone Like Me - Mary Duff
TTITLE10=The Girl From Donegal - Margo
TTITLE11=Pal Of My Cradle Days - Gloria
TTITLE12=The Last Waltz - Rose Marie
TTITLE13=When I Grow Too Old To Dream - Kathy Durkin 
EXTD=YEAR: 1989
EXTT0=
EXTT1=
EXTT2=
EXTT3=
EXTT4=
EXTT5=
EXTT6=
EXTT7=
EXTT8=
EXTT9=
EXTT10=
EXTT11=
EXTT12=
EXTT13=
PLAYORDER=
